<svg xmlns="http://www.w3.org/2000/svg" xmlns:xlink="http://www.w3.org/1999/xlink" width="50" zoomAndPan="magnify" viewBox="0 0 37.5 37.499999" height="50" preserveAspectRatio="xMidYMid meet" version="1.0"><defs><clipPath id="id1"><path d="M 8.097656 15.832031 L 29.097656 15.832031 L 29.097656 21.832031 L 8.097656 21.832031 Z M 8.097656 15.832031 " clip-rule="nonzero"/></clipPath></defs><g clip-path="url(#id1)"><path fill="#000000" d="M 26.25 17.90625 C 26.25 17.921875 26.25 17.921875 26.234375 17.9375 C 26.101562 17.921875 25.984375 17.921875 25.855469 17.90625 C 25.558594 17.871094 25.261719 17.835938 24.964844 17.820312 C 24.621094 17.785156 24.273438 17.765625 23.910156 17.75 C 23.683594 17.734375 23.453125 17.699219 23.222656 17.679688 C 22.824219 17.648438 22.429688 17.628906 22.050781 17.59375 C 21.707031 17.578125 21.378906 17.5625 21.03125 17.542969 C 20.867188 17.542969 20.6875 17.542969 20.523438 17.527344 C 20.175781 17.527344 19.832031 17.507812 19.5 17.507812 C 19.320312 17.507812 19.15625 17.507812 18.976562 17.507812 C 18.808594 17.507812 18.628906 17.507812 18.464844 17.527344 C 18.234375 17.527344 18.003906 17.527344 17.773438 17.527344 C 17.527344 17.527344 17.261719 17.542969 17.015625 17.5625 C 16.753906 17.578125 16.488281 17.578125 16.226562 17.59375 C 16.210938 17.59375 16.195312 17.59375 16.175781 17.59375 C 15.996094 17.59375 15.816406 17.59375 15.632812 17.613281 C 15.535156 17.613281 15.4375 17.648438 15.335938 17.648438 C 15.15625 17.648438 14.976562 17.628906 14.792969 17.648438 C 14.367188 17.679688 13.9375 17.714844 13.496094 17.75 C 13.214844 17.765625 12.953125 17.785156 12.671875 17.800781 C 12.425781 17.820312 12.179688 17.851562 11.914062 17.871094 C 11.667969 17.90625 11.421875 17.9375 11.15625 17.957031 C 10.84375 17.992188 10.53125 18.042969 10.21875 18.078125 C 9.921875 18.109375 9.644531 18.128906 9.347656 18.179688 C 9.019531 18.230469 8.671875 18.300781 8.34375 18.367188 C 8.246094 18.386719 8.144531 18.402344 8.128906 18.523438 C 8.113281 18.628906 8.097656 18.746094 8.128906 18.851562 C 8.160156 18.953125 8.226562 19.074219 8.308594 19.109375 C 8.425781 19.160156 8.558594 19.144531 8.6875 19.144531 C 8.871094 19.125 9.050781 19.089844 9.230469 19.074219 C 9.460938 19.039062 9.710938 19.023438 9.941406 18.988281 C 10.136719 18.972656 10.351562 18.953125 10.546875 18.917969 C 10.746094 18.886719 10.960938 18.851562 11.15625 18.832031 C 11.320312 18.816406 11.488281 18.816406 11.652344 18.800781 C 11.929688 18.765625 12.210938 18.714844 12.492188 18.679688 C 12.769531 18.644531 13.066406 18.609375 13.347656 18.59375 C 13.609375 18.558594 13.855469 18.542969 14.121094 18.523438 C 14.398438 18.507812 14.679688 18.507812 14.976562 18.488281 C 14.992188 18.488281 14.992188 18.488281 15.007812 18.488281 C 15.171875 18.457031 15.355469 18.421875 15.519531 18.421875 C 15.648438 18.421875 15.796875 18.457031 15.929688 18.457031 C 16.078125 18.457031 16.226562 18.421875 16.390625 18.421875 C 16.570312 18.421875 16.753906 18.4375 16.933594 18.421875 C 17.097656 18.421875 17.261719 18.386719 17.445312 18.367188 C 17.609375 18.351562 17.773438 18.367188 17.953125 18.351562 C 18.085938 18.351562 18.21875 18.316406 18.332031 18.316406 C 18.480469 18.316406 18.628906 18.335938 18.777344 18.335938 C 19.105469 18.351562 19.4375 18.351562 19.765625 18.367188 C 19.894531 18.367188 20.027344 18.367188 20.160156 18.386719 C 20.292969 18.386719 20.441406 18.402344 20.570312 18.421875 C 20.785156 18.421875 21 18.421875 21.214844 18.421875 C 21.492188 18.421875 21.773438 18.421875 22.050781 18.421875 C 22.152344 18.421875 22.234375 18.4375 22.332031 18.457031 C 22.480469 18.472656 22.644531 18.507812 22.792969 18.507812 C 22.972656 18.523438 23.171875 18.507812 23.351562 18.523438 C 23.664062 18.542969 23.976562 18.574219 24.289062 18.609375 C 24.503906 18.628906 24.71875 18.644531 24.933594 18.679688 C 25.097656 18.695312 25.261719 18.730469 25.425781 18.746094 C 25.605469 18.765625 25.789062 18.78125 25.984375 18.816406 C 26.332031 18.867188 26.660156 18.9375 27.007812 18.988281 C 27.039062 18.988281 27.105469 19.023438 27.105469 19.058594 C 27.105469 19.109375 27.089844 19.195312 27.054688 19.210938 C 26.890625 19.347656 26.695312 19.46875 26.527344 19.589844 C 26.347656 19.726562 26.148438 19.867188 25.96875 20.003906 C 25.886719 20.070312 25.804688 20.125 25.707031 20.175781 C 25.523438 20.296875 25.34375 20.398438 25.164062 20.503906 C 24.769531 20.65625 24.816406 20.984375 24.851562 21.34375 C 24.867188 21.34375 24.851562 21.34375 24.851562 21.34375 C 24.851562 21.414062 24.832031 21.5 24.867188 21.550781 C 24.914062 21.671875 25.03125 21.757812 25.164062 21.792969 C 25.230469 21.808594 25.3125 21.828125 25.375 21.792969 C 25.441406 21.773438 25.492188 21.722656 25.542969 21.671875 C 25.625 21.585938 25.738281 21.5 25.773438 21.394531 C 25.835938 21.171875 25.984375 21.050781 26.132812 20.914062 C 26.265625 20.8125 26.429688 20.742188 26.578125 20.640625 C 26.792969 20.484375 26.988281 20.328125 27.203125 20.175781 C 27.351562 20.070312 27.5 19.96875 27.632812 19.867188 C 27.796875 19.746094 27.960938 19.589844 28.125 19.488281 C 28.207031 19.433594 28.339844 19.417969 28.4375 19.382812 C 28.488281 19.367188 28.519531 19.332031 28.554688 19.316406 C 28.585938 19.296875 28.601562 19.28125 28.636719 19.261719 C 28.71875 19.195312 28.800781 19.144531 28.867188 19.074219 C 28.898438 19.039062 28.832031 18.902344 28.964844 18.9375 C 28.964844 18.9375 28.980469 18.917969 28.980469 18.902344 C 28.980469 18.816406 28.949219 18.714844 28.980469 18.644531 C 29.078125 18.488281 29.0625 18.335938 28.980469 18.195312 C 28.914062 18.09375 28.800781 18.007812 28.703125 17.9375 C 28.652344 17.90625 28.585938 17.921875 28.519531 17.90625 C 28.472656 17.886719 28.4375 17.835938 28.40625 17.835938 C 28.191406 17.765625 27.976562 17.734375 27.78125 17.648438 C 27.566406 17.5625 27.382812 17.421875 27.171875 17.335938 C 26.988281 17.25 26.808594 17.183594 26.609375 17.113281 C 26.480469 17.0625 26.332031 17.027344 26.199219 16.976562 C 25.96875 16.890625 25.738281 16.785156 25.523438 16.699219 C 25.34375 16.632812 25.144531 16.546875 24.964844 16.476562 C 24.882812 16.441406 24.785156 16.425781 24.6875 16.390625 C 24.539062 16.324219 24.390625 16.234375 24.226562 16.167969 C 24.09375 16.097656 23.976562 16.03125 23.847656 15.976562 C 23.746094 15.925781 23.632812 15.839844 23.535156 15.859375 C 23.351562 15.890625 23.203125 16.011719 23.15625 16.203125 C 23.15625 16.21875 23.171875 16.253906 23.1875 16.269531 C 23.1875 16.289062 23.1875 16.304688 23.1875 16.324219 C 23.074219 16.304688 23.105469 16.390625 23.121094 16.441406 C 23.121094 16.496094 23.171875 16.546875 23.171875 16.597656 C 23.203125 16.769531 23.335938 16.839844 23.46875 16.890625 C 23.582031 16.925781 23.683594 16.941406 23.796875 16.976562 C 23.878906 16.992188 23.960938 17.027344 24.042969 17.0625 C 24.078125 17.078125 24.109375 17.0625 24.140625 17.0625 C 24.226562 17.097656 24.289062 17.128906 24.371094 17.164062 C 24.519531 17.234375 24.667969 17.300781 24.816406 17.371094 C 24.980469 17.441406 25.144531 17.476562 25.3125 17.542969 C 25.492188 17.613281 25.65625 17.679688 25.820312 17.75 C 25.984375 17.820312 26.117188 17.871094 26.25 17.90625 Z M 26.25 17.90625 " fill-opacity="1" fill-rule="nonzero"/><path fill="#000000" d="M 26.25 17.90625 C 26.117188 17.851562 25.984375 17.800781 25.855469 17.75 C 25.671875 17.679688 25.507812 17.59375 25.34375 17.542969 C 25.179688 17.476562 25.015625 17.441406 24.851562 17.371094 C 24.703125 17.320312 24.554688 17.234375 24.40625 17.164062 C 24.308594 17.128906 24.242188 17.097656 24.160156 17.0625 C 24.125 17.042969 24.09375 17.0625 24.058594 17.0625 C 23.976562 17.042969 23.894531 17.011719 23.8125 16.976562 C 23.699219 16.941406 23.597656 16.925781 23.484375 16.890625 C 23.335938 16.839844 23.203125 16.785156 23.1875 16.597656 C 23.171875 16.546875 23.136719 16.496094 23.136719 16.441406 C 23.136719 16.390625 23.105469 16.304688 23.203125 16.324219 C 23.203125 16.304688 23.203125 16.289062 23.203125 16.269531 C 23.203125 16.253906 23.171875 16.21875 23.171875 16.203125 C 23.238281 15.996094 23.386719 15.890625 23.550781 15.859375 C 23.648438 15.839844 23.765625 15.925781 23.863281 15.976562 C 23.996094 16.03125 24.125 16.097656 24.242188 16.167969 C 24.390625 16.234375 24.539062 16.324219 24.703125 16.390625 C 24.785156 16.425781 24.882812 16.441406 24.980469 16.476562 C 25.179688 16.546875 25.359375 16.613281 25.542969 16.699219 C 25.773438 16.785156 25.984375 16.890625 26.214844 16.976562 C 26.347656 17.027344 26.496094 17.0625 26.628906 17.113281 C 26.808594 17.183594 27.007812 17.25 27.1875 17.335938 C 27.402344 17.441406 27.582031 17.5625 27.796875 17.648438 C 27.992188 17.734375 28.207031 17.765625 28.421875 17.835938 C 28.472656 17.851562 28.503906 17.886719 28.535156 17.90625 C 28.601562 17.921875 28.667969 17.90625 28.71875 17.9375 C 28.816406 18.007812 28.933594 18.09375 28.996094 18.195312 C 29.078125 18.335938 29.097656 18.488281 28.996094 18.644531 C 28.964844 18.714844 28.996094 18.816406 28.996094 18.902344 C 28.996094 18.917969 28.980469 18.9375 28.980469 18.9375 C 28.847656 18.917969 28.914062 19.039062 28.882812 19.074219 C 28.816406 19.144531 28.734375 19.195312 28.652344 19.261719 C 28.617188 19.28125 28.601562 19.296875 28.570312 19.316406 C 28.535156 19.332031 28.488281 19.367188 28.453125 19.382812 C 28.355469 19.417969 28.222656 19.417969 28.140625 19.488281 C 27.960938 19.589844 27.8125 19.746094 27.648438 19.867188 C 27.5 19.96875 27.367188 20.070312 27.21875 20.175781 C 27.007812 20.328125 26.808594 20.484375 26.59375 20.640625 C 26.445312 20.742188 26.28125 20.792969 26.148438 20.914062 C 26.003906 21.035156 25.835938 21.171875 25.789062 21.394531 C 25.753906 21.5 25.640625 21.585938 25.558594 21.671875 C 25.507812 21.722656 25.460938 21.773438 25.394531 21.792969 C 25.328125 21.808594 25.246094 21.792969 25.179688 21.792969 C 25.046875 21.757812 24.949219 21.6875 24.882812 21.550781 C 24.851562 21.5 24.867188 21.414062 24.867188 21.34375 C 24.867188 21.34375 24.882812 21.34375 24.867188 21.34375 C 24.816406 21 24.785156 20.675781 25.179688 20.503906 C 25.359375 20.398438 25.542969 20.277344 25.722656 20.175781 C 25.804688 20.125 25.902344 20.054688 25.984375 20.003906 C 26.167969 19.867188 26.347656 19.726562 26.546875 19.589844 C 26.726562 19.46875 26.90625 19.347656 27.070312 19.210938 C 27.105469 19.175781 27.121094 19.109375 27.121094 19.058594 C 27.121094 19.039062 27.054688 19.003906 27.023438 18.988281 C 26.675781 18.917969 26.347656 18.867188 26.003906 18.816406 C 25.820312 18.78125 25.640625 18.78125 25.441406 18.746094 C 25.277344 18.730469 25.113281 18.695312 24.949219 18.679688 C 24.734375 18.660156 24.519531 18.644531 24.308594 18.609375 C 23.996094 18.574219 23.683594 18.542969 23.367188 18.523438 C 23.1875 18.507812 22.992188 18.523438 22.808594 18.507812 C 22.660156 18.488281 22.496094 18.472656 22.347656 18.457031 C 22.25 18.4375 22.167969 18.4375 22.070312 18.421875 C 21.789062 18.421875 21.507812 18.421875 21.230469 18.421875 C 21.015625 18.421875 20.800781 18.421875 20.585938 18.421875 C 20.457031 18.421875 20.308594 18.402344 20.175781 18.386719 C 20.042969 18.386719 19.914062 18.386719 19.78125 18.367188 C 19.453125 18.351562 19.121094 18.351562 18.792969 18.335938 C 18.644531 18.335938 18.496094 18.316406 18.347656 18.316406 C 18.21875 18.316406 18.085938 18.335938 17.972656 18.351562 C 17.804688 18.351562 17.640625 18.351562 17.460938 18.367188 C 17.296875 18.386719 17.132812 18.402344 16.949219 18.421875 C 16.769531 18.421875 16.589844 18.402344 16.40625 18.421875 C 16.257812 18.421875 16.109375 18.457031 15.945312 18.457031 C 15.816406 18.457031 15.667969 18.421875 15.535156 18.421875 C 15.371094 18.4375 15.191406 18.472656 15.023438 18.488281 C 15.007812 18.488281 15.007812 18.488281 14.992188 18.488281 C 14.710938 18.507812 14.433594 18.507812 14.136719 18.523438 C 13.871094 18.542969 13.625 18.574219 13.363281 18.59375 C 13.082031 18.628906 12.785156 18.644531 12.507812 18.679688 C 12.226562 18.714844 11.949219 18.765625 11.667969 18.800781 C 11.503906 18.816406 11.339844 18.816406 11.175781 18.832031 C 10.976562 18.851562 10.761719 18.902344 10.566406 18.917969 C 10.367188 18.953125 10.152344 18.972656 9.957031 18.988281 C 9.726562 19.023438 9.480469 19.039062 9.25 19.074219 C 9.066406 19.089844 8.886719 19.125 8.707031 19.144531 C 8.574219 19.160156 8.441406 19.160156 8.328125 19.109375 C 8.246094 19.074219 8.179688 18.953125 8.144531 18.851562 C 8.113281 18.746094 8.128906 18.628906 8.144531 18.523438 C 8.160156 18.386719 8.261719 18.386719 8.359375 18.367188 C 8.6875 18.300781 9.035156 18.230469 9.363281 18.179688 C 9.660156 18.128906 9.941406 18.109375 10.234375 18.078125 C 10.546875 18.042969 10.859375 17.992188 11.175781 17.957031 C 11.421875 17.921875 11.667969 17.886719 11.929688 17.871094 C 12.179688 17.835938 12.425781 17.820312 12.6875 17.800781 C 12.96875 17.785156 13.230469 17.765625 13.511719 17.75 C 13.9375 17.714844 14.367188 17.679688 14.8125 17.648438 C 14.992188 17.628906 15.171875 17.648438 15.355469 17.648438 C 15.453125 17.648438 15.550781 17.613281 15.648438 17.613281 C 15.832031 17.59375 16.011719 17.59375 16.195312 17.59375 C 16.210938 17.59375 16.226562 17.59375 16.242188 17.59375 C 16.472656 17.578125 16.738281 17.578125 17 17.5625 C 17.246094 17.542969 17.511719 17.542969 17.757812 17.527344 C 17.988281 17.527344 18.21875 17.527344 18.449219 17.527344 C 18.613281 17.527344 18.792969 17.527344 18.957031 17.507812 C 19.140625 17.507812 19.304688 17.492188 19.484375 17.507812 C 19.832031 17.507812 20.175781 17.527344 20.503906 17.527344 C 20.667969 17.527344 20.851562 17.527344 21.015625 17.542969 C 21.359375 17.5625 21.691406 17.578125 22.035156 17.59375 C 22.429688 17.613281 22.824219 17.648438 23.203125 17.679688 C 23.433594 17.699219 23.664062 17.734375 23.894531 17.75 C 24.242188 17.785156 24.585938 17.785156 24.949219 17.820312 C 25.246094 17.835938 25.542969 17.886719 25.835938 17.90625 C 25.96875 17.921875 26.085938 17.921875 26.214844 17.9375 C 26.234375 17.9375 26.234375 17.921875 26.25 17.90625 Z M 26.25 17.90625 " fill-opacity="1" fill-rule="nonzero"/></g></svg>