<svg xmlns="http://www.w3.org/2000/svg" xmlns:xlink="http://www.w3.org/1999/xlink" width="50" zoomAndPan="magnify" viewBox="0 0 37.5 37.499999" height="50" preserveAspectRatio="xMidYMid meet" version="1.0"><defs><clipPath id="id1"><path d="M 8.402344 15.65625 L 29.402344 15.65625 L 29.402344 21.65625 L 8.402344 21.65625 Z M 8.402344 15.65625 " clip-rule="nonzero"/></clipPath></defs><g clip-path="url(#id1)"><path fill="#000000" d="M 11.25 19.585938 C 11.25 19.570312 11.25 19.570312 11.265625 19.550781 C 11.394531 19.570312 11.511719 19.570312 11.644531 19.585938 C 11.9375 19.621094 12.234375 19.65625 12.53125 19.671875 C 12.878906 19.707031 13.222656 19.722656 13.585938 19.742188 C 13.816406 19.757812 14.046875 19.792969 14.277344 19.808594 C 14.671875 19.84375 15.066406 19.863281 15.445312 19.894531 C 15.789062 19.914062 16.121094 19.929688 16.464844 19.949219 C 16.628906 19.949219 16.8125 19.949219 16.976562 19.964844 C 17.320312 19.964844 17.667969 19.980469 17.996094 19.980469 C 18.175781 19.980469 18.339844 19.980469 18.523438 19.980469 C 18.6875 19.980469 18.867188 19.980469 19.03125 19.964844 C 19.261719 19.964844 19.492188 19.964844 19.722656 19.964844 C 19.96875 19.964844 20.234375 19.949219 20.480469 19.929688 C 20.746094 19.914062 21.007812 19.914062 21.269531 19.894531 C 21.289062 19.894531 21.304688 19.894531 21.320312 19.894531 C 21.5 19.894531 21.683594 19.894531 21.863281 19.878906 C 21.960938 19.878906 22.0625 19.84375 22.160156 19.84375 C 22.339844 19.84375 22.523438 19.863281 22.703125 19.84375 C 23.128906 19.808594 23.558594 19.777344 24.003906 19.742188 C 24.28125 19.722656 24.546875 19.707031 24.824219 19.691406 C 25.074219 19.671875 25.320312 19.636719 25.582031 19.621094 C 25.828125 19.585938 26.078125 19.550781 26.339844 19.535156 C 26.652344 19.5 26.964844 19.449219 27.277344 19.414062 C 27.574219 19.378906 27.855469 19.363281 28.148438 19.3125 C 28.480469 19.261719 28.824219 19.191406 29.152344 19.121094 C 29.253906 19.105469 29.351562 19.085938 29.367188 18.96875 C 29.382812 18.863281 29.402344 18.742188 29.367188 18.640625 C 29.335938 18.539062 29.269531 18.417969 29.1875 18.382812 C 29.070312 18.332031 28.941406 18.347656 28.808594 18.347656 C 28.628906 18.367188 28.445312 18.398438 28.265625 18.417969 C 28.035156 18.453125 27.789062 18.46875 27.558594 18.503906 C 27.359375 18.519531 27.144531 18.539062 26.949219 18.570312 C 26.75 18.605469 26.539062 18.640625 26.339844 18.65625 C 26.175781 18.675781 26.011719 18.675781 25.847656 18.691406 C 25.566406 18.726562 25.285156 18.777344 25.007812 18.8125 C 24.726562 18.847656 24.429688 18.882812 24.152344 18.898438 C 23.886719 18.933594 23.640625 18.949219 23.378906 18.96875 C 23.097656 18.984375 22.816406 18.984375 22.523438 19 C 22.503906 19 22.503906 19 22.488281 19 C 22.324219 19.035156 22.144531 19.070312 21.980469 19.070312 C 21.847656 19.070312 21.699219 19.035156 21.566406 19.035156 C 21.417969 19.035156 21.269531 19.070312 21.105469 19.070312 C 20.925781 19.070312 20.746094 19.054688 20.5625 19.070312 C 20.398438 19.070312 20.234375 19.105469 20.054688 19.121094 C 19.886719 19.140625 19.722656 19.121094 19.542969 19.140625 C 19.410156 19.140625 19.28125 19.171875 19.164062 19.171875 C 19.015625 19.171875 18.867188 19.15625 18.71875 19.15625 C 18.390625 19.140625 18.0625 19.140625 17.734375 19.121094 C 17.601562 19.121094 17.46875 19.121094 17.335938 19.105469 C 17.207031 19.105469 17.058594 19.085938 16.925781 19.070312 C 16.710938 19.070312 16.5 19.070312 16.285156 19.070312 C 16.003906 19.070312 15.722656 19.070312 15.445312 19.070312 C 15.347656 19.070312 15.265625 19.054688 15.164062 19.035156 C 15.015625 19.019531 14.851562 18.984375 14.703125 18.984375 C 14.523438 18.96875 14.324219 18.984375 14.144531 18.96875 C 13.832031 18.949219 13.519531 18.914062 13.207031 18.882812 C 12.992188 18.863281 12.777344 18.847656 12.566406 18.8125 C 12.398438 18.796875 12.234375 18.761719 12.070312 18.742188 C 11.890625 18.726562 11.707031 18.710938 11.511719 18.675781 C 11.164062 18.625 10.835938 18.554688 10.492188 18.503906 C 10.457031 18.503906 10.390625 18.46875 10.390625 18.433594 C 10.390625 18.382812 10.410156 18.296875 10.441406 18.28125 C 10.605469 18.140625 10.804688 18.019531 10.96875 17.902344 C 11.148438 17.761719 11.347656 17.625 11.527344 17.488281 C 11.609375 17.417969 11.691406 17.367188 11.792969 17.316406 C 11.972656 17.195312 12.152344 17.09375 12.335938 16.988281 C 12.730469 16.835938 12.679688 16.507812 12.648438 16.148438 C 12.628906 16.148438 12.648438 16.148438 12.648438 16.148438 C 12.648438 16.078125 12.664062 15.992188 12.628906 15.941406 C 12.582031 15.820312 12.464844 15.734375 12.335938 15.699219 C 12.269531 15.683594 12.1875 15.664062 12.121094 15.699219 C 12.054688 15.714844 12.003906 15.769531 11.957031 15.820312 C 11.875 15.90625 11.757812 15.992188 11.726562 16.09375 C 11.660156 16.320312 11.511719 16.4375 11.363281 16.578125 C 11.230469 16.679688 11.066406 16.75 10.917969 16.851562 C 10.703125 17.007812 10.507812 17.160156 10.292969 17.316406 C 10.144531 17.417969 9.996094 17.523438 9.867188 17.625 C 9.699219 17.746094 9.535156 17.902344 9.371094 18.003906 C 9.289062 18.054688 9.15625 18.074219 9.058594 18.105469 C 9.011719 18.125 8.976562 18.160156 8.945312 18.175781 C 8.910156 18.191406 8.894531 18.210938 8.863281 18.226562 C 8.78125 18.296875 8.695312 18.347656 8.632812 18.417969 C 8.597656 18.453125 8.664062 18.589844 8.53125 18.554688 C 8.53125 18.554688 8.515625 18.570312 8.515625 18.589844 C 8.515625 18.675781 8.550781 18.777344 8.515625 18.847656 C 8.417969 19 8.433594 19.15625 8.515625 19.292969 C 8.582031 19.398438 8.695312 19.484375 8.796875 19.550781 C 8.84375 19.585938 8.910156 19.570312 8.976562 19.585938 C 9.027344 19.605469 9.058594 19.65625 9.09375 19.65625 C 9.304688 19.722656 9.519531 19.757812 9.71875 19.84375 C 9.929688 19.929688 10.113281 20.066406 10.328125 20.152344 C 10.507812 20.238281 10.6875 20.308594 10.886719 20.378906 C 11.019531 20.429688 11.164062 20.464844 11.296875 20.515625 C 11.527344 20.601562 11.757812 20.703125 11.972656 20.789062 C 12.152344 20.859375 12.351562 20.945312 12.53125 21.015625 C 12.613281 21.046875 12.710938 21.066406 12.8125 21.101562 C 12.960938 21.167969 13.109375 21.253906 13.273438 21.324219 C 13.402344 21.394531 13.519531 21.460938 13.652344 21.511719 C 13.75 21.566406 13.863281 21.652344 13.964844 21.632812 C 14.144531 21.597656 14.292969 21.480469 14.34375 21.289062 C 14.34375 21.273438 14.324219 21.238281 14.308594 21.21875 C 14.308594 21.203125 14.308594 21.1875 14.308594 21.167969 C 14.425781 21.1875 14.390625 21.101562 14.375 21.046875 C 14.375 20.996094 14.324219 20.945312 14.324219 20.894531 C 14.292969 20.722656 14.160156 20.652344 14.03125 20.601562 C 13.914062 20.566406 13.816406 20.550781 13.699219 20.515625 C 13.617188 20.5 13.535156 20.464844 13.453125 20.429688 C 13.421875 20.414062 13.386719 20.429688 13.355469 20.429688 C 13.273438 20.394531 13.207031 20.359375 13.125 20.328125 C 12.976562 20.257812 12.828125 20.1875 12.679688 20.121094 C 12.515625 20.050781 12.351562 20.015625 12.1875 19.949219 C 12.003906 19.878906 11.839844 19.808594 11.675781 19.742188 C 11.511719 19.671875 11.378906 19.621094 11.25 19.585938 Z M 11.25 19.585938 " fill-opacity="1" fill-rule="nonzero"/><path fill="#000000" d="M 11.25 19.585938 C 11.378906 19.636719 11.511719 19.691406 11.644531 19.742188 C 11.824219 19.808594 11.988281 19.894531 12.152344 19.949219 C 12.316406 20.015625 12.484375 20.050781 12.648438 20.121094 C 12.796875 20.171875 12.941406 20.257812 13.089844 20.328125 C 13.191406 20.359375 13.257812 20.394531 13.339844 20.429688 C 13.371094 20.445312 13.402344 20.429688 13.4375 20.429688 C 13.519531 20.445312 13.601562 20.480469 13.683594 20.515625 C 13.800781 20.550781 13.898438 20.566406 14.011719 20.601562 C 14.160156 20.652344 14.292969 20.703125 14.308594 20.894531 C 14.324219 20.945312 14.359375 20.996094 14.359375 21.046875 C 14.359375 21.101562 14.390625 21.1875 14.292969 21.167969 C 14.292969 21.1875 14.292969 21.203125 14.292969 21.21875 C 14.292969 21.238281 14.324219 21.273438 14.324219 21.289062 C 14.261719 21.496094 14.113281 21.597656 13.945312 21.632812 C 13.847656 21.652344 13.734375 21.566406 13.632812 21.511719 C 13.503906 21.460938 13.371094 21.394531 13.257812 21.324219 C 13.109375 21.253906 12.960938 21.167969 12.796875 21.101562 C 12.710938 21.066406 12.613281 21.046875 12.515625 21.015625 C 12.316406 20.945312 12.136719 20.875 11.957031 20.789062 C 11.726562 20.703125 11.511719 20.601562 11.28125 20.515625 C 11.148438 20.464844 11 20.429688 10.871094 20.378906 C 10.6875 20.308594 10.492188 20.238281 10.308594 20.152344 C 10.097656 20.050781 9.914062 19.929688 9.699219 19.84375 C 9.503906 19.757812 9.289062 19.722656 9.074219 19.65625 C 9.027344 19.636719 8.992188 19.605469 8.960938 19.585938 C 8.894531 19.570312 8.828125 19.585938 8.78125 19.550781 C 8.679688 19.484375 8.566406 19.398438 8.5 19.292969 C 8.417969 19.15625 8.402344 19 8.5 18.847656 C 8.53125 18.777344 8.5 18.675781 8.5 18.589844 C 8.5 18.570312 8.515625 18.554688 8.515625 18.554688 C 8.648438 18.570312 8.582031 18.453125 8.613281 18.417969 C 8.679688 18.347656 8.761719 18.296875 8.84375 18.226562 C 8.878906 18.210938 8.894531 18.191406 8.925781 18.175781 C 8.960938 18.160156 9.011719 18.125 9.042969 18.105469 C 9.140625 18.074219 9.273438 18.074219 9.355469 18.003906 C 9.535156 17.902344 9.683594 17.746094 9.847656 17.625 C 9.996094 17.523438 10.128906 17.417969 10.277344 17.316406 C 10.492188 17.160156 10.6875 17.007812 10.902344 16.851562 C 11.050781 16.75 11.214844 16.695312 11.347656 16.578125 C 11.496094 16.457031 11.660156 16.320312 11.707031 16.09375 C 11.742188 15.992188 11.855469 15.90625 11.9375 15.820312 C 11.988281 15.769531 12.039062 15.714844 12.105469 15.699219 C 12.167969 15.683594 12.253906 15.699219 12.316406 15.699219 C 12.449219 15.734375 12.546875 15.800781 12.613281 15.941406 C 12.648438 15.992188 12.628906 16.078125 12.628906 16.148438 C 12.628906 16.148438 12.613281 16.148438 12.628906 16.148438 C 12.679688 16.492188 12.710938 16.816406 12.316406 16.988281 C 12.136719 17.09375 11.957031 17.214844 11.773438 17.316406 C 11.691406 17.367188 11.59375 17.4375 11.511719 17.488281 C 11.332031 17.625 11.148438 17.761719 10.953125 17.902344 C 10.769531 18.019531 10.589844 18.140625 10.425781 18.28125 C 10.390625 18.3125 10.375 18.382812 10.375 18.433594 C 10.375 18.453125 10.441406 18.484375 10.472656 18.503906 C 10.820312 18.570312 11.148438 18.625 11.496094 18.675781 C 11.675781 18.710938 11.855469 18.710938 12.054688 18.742188 C 12.21875 18.761719 12.382812 18.796875 12.546875 18.8125 C 12.761719 18.828125 12.976562 18.847656 13.191406 18.882812 C 13.503906 18.914062 13.816406 18.949219 14.128906 18.96875 C 14.308594 18.984375 14.507812 18.96875 14.6875 18.984375 C 14.835938 19 15 19.019531 15.148438 19.035156 C 15.246094 19.054688 15.328125 19.054688 15.429688 19.070312 C 15.707031 19.070312 15.988281 19.070312 16.269531 19.070312 C 16.480469 19.070312 16.695312 19.070312 16.910156 19.070312 C 17.042969 19.070312 17.1875 19.085938 17.320312 19.105469 C 17.453125 19.105469 17.585938 19.105469 17.714844 19.121094 C 18.046875 19.140625 18.375 19.140625 18.703125 19.15625 C 18.851562 19.15625 19 19.171875 19.148438 19.171875 C 19.28125 19.171875 19.410156 19.15625 19.527344 19.140625 C 19.691406 19.140625 19.855469 19.140625 20.035156 19.121094 C 20.199219 19.105469 20.367188 19.085938 20.546875 19.070312 C 20.726562 19.070312 20.910156 19.085938 21.089844 19.070312 C 21.238281 19.070312 21.386719 19.035156 21.550781 19.035156 C 21.683594 19.035156 21.832031 19.070312 21.960938 19.070312 C 22.125 19.054688 22.308594 19.019531 22.472656 19 C 22.488281 19 22.488281 19 22.503906 19 C 22.785156 18.984375 23.066406 18.984375 23.359375 18.96875 C 23.625 18.949219 23.871094 18.914062 24.132812 18.898438 C 24.414062 18.863281 24.710938 18.847656 24.992188 18.8125 C 25.269531 18.777344 25.550781 18.726562 25.828125 18.691406 C 25.996094 18.675781 26.160156 18.675781 26.324219 18.65625 C 26.519531 18.640625 26.734375 18.589844 26.933594 18.570312 C 27.128906 18.539062 27.34375 18.519531 27.542969 18.503906 C 27.773438 18.46875 28.019531 18.453125 28.25 18.417969 C 28.429688 18.398438 28.609375 18.367188 28.792969 18.347656 C 28.921875 18.332031 29.054688 18.332031 29.171875 18.382812 C 29.253906 18.417969 29.320312 18.539062 29.351562 18.640625 C 29.382812 18.742188 29.367188 18.863281 29.351562 18.96875 C 29.335938 19.105469 29.238281 19.105469 29.136719 19.121094 C 28.808594 19.191406 28.460938 19.261719 28.132812 19.3125 C 27.835938 19.363281 27.558594 19.378906 27.261719 19.414062 C 26.949219 19.449219 26.636719 19.5 26.324219 19.535156 C 26.078125 19.570312 25.828125 19.605469 25.566406 19.621094 C 25.320312 19.65625 25.074219 19.671875 24.808594 19.691406 C 24.53125 19.707031 24.265625 19.722656 23.988281 19.742188 C 23.558594 19.777344 23.128906 19.808594 22.6875 19.84375 C 22.503906 19.863281 22.324219 19.84375 22.144531 19.84375 C 22.042969 19.84375 21.945312 19.878906 21.847656 19.878906 C 21.664062 19.894531 21.484375 19.894531 21.304688 19.894531 C 21.289062 19.894531 21.269531 19.894531 21.253906 19.894531 C 21.023438 19.914062 20.761719 19.914062 20.496094 19.929688 C 20.25 19.949219 19.988281 19.949219 19.742188 19.964844 C 19.511719 19.964844 19.28125 19.964844 19.050781 19.964844 C 18.882812 19.964844 18.703125 19.964844 18.539062 19.980469 C 18.359375 19.980469 18.191406 20 18.011719 19.980469 C 17.667969 19.980469 17.320312 19.964844 16.992188 19.964844 C 16.828125 19.964844 16.644531 19.964844 16.480469 19.949219 C 16.136719 19.929688 15.808594 19.914062 15.460938 19.894531 C 15.066406 19.878906 14.671875 19.84375 14.292969 19.808594 C 14.0625 19.792969 13.832031 19.757812 13.601562 19.742188 C 13.257812 19.707031 12.910156 19.707031 12.546875 19.671875 C 12.253906 19.65625 11.957031 19.605469 11.660156 19.585938 C 11.527344 19.570312 11.414062 19.570312 11.28125 19.550781 C 11.265625 19.550781 11.265625 19.570312 11.25 19.585938 Z M 11.25 19.585938 " fill-opacity="1" fill-rule="nonzero"/></g></svg>